:SAMPLES-PER-SECOND 30
:FULLY-SPECIFIED
:DEGREES
232
root  -13.8458 39.0733 1.42536 -135.033 -84.2671 130.776
RightUpLeg  -10.2441 4.78633 -8.75273
RightLeg  59.2192 4.30977 7.33155
RightFoot  -1.02777 -0.992988 10.903
RightToes  -1.16417e-010 0 -3.6325e-017
Spine  2.4911 0.574393 -7.06206
Spine1  9.64027 0.284327 -2.32501
HEad  -19.5199 4.85915 -5.6539
LeftShoulder1  -0.661058 5.19612 -32.8802
LeftArm  10.0208 -4.86082 -41.8186
LeftForeArm  28.5838 -13.181 -9.42003
LeftHand  -0.0731779 9.24148 -0.644201
RightShoulder  -0.850549 -5.89321 28.9961
RightArm  20.6147 -7.51743 47.1706
RightForeArm  21.1126 11.9305 7.543
RightHand  0.103955 2.57664 1.30164
LeftUpLeg  -7.28686 5.25229 -7.04215
LeftLeg  20.1803 7.93707 2.81111
LeftFoot  -9.06041 -0.0647141 5.96453
LeftToes  3.13772e-010 -3.14513e-011 3.96022e-013
233
root  -14.5466 39.1546 1.55979 -144.289 -84.2049 139.744
RightUpLeg  -13.884 5.34568 -8.14293
RightLeg  58.6359 3.51002 5.77418
RightFoot  -1.31478 -0.883268 9.93499
RightToes  -1.16417e-010 0 -3.6325e-017
Spine  3.1501 0.338495 -6.91907
Spine1  9.25889 -0.0329541 -2.18893
HEad  -19.0613 4.90432 -4.77184
LeftShoulder1  -0.559147 4.97335 -31.9161
LeftArm  10.6709 -8.3215 -42.7778
LeftForeArm  27.5945 -14.3128 -8.73855
LeftHand  -0.0534211 9.31953 -0.0730716
RightShoulder  -0.899005 -6.02605 29.0621
RightArm  21.4184 -8.55562 46.6073
RightForeArm  18.3584 13.7161 6.85763
RightHand  0.0766825 2.15378 1.00644
LeftUpLeg  -5.35511 5.53817 -6.42126
LeftLeg  19.4702 8.35509 2.62386
LeftFoot  -10.0584 -0.00358885 5.76103
LeftToes  3.13772e-010 -3.14513e-011 3.96022e-013
234
root  -15.3103 39.2298 1.68188 -149.079 -84.5402 144.099
RightUpLeg  -16.2224 5.24057 -7.46372
RightLeg  55.0138 3.06081 4.29677
RightFoot  -2.27193 -0.769263 9.49097
RightToes  -1.16417e-010 0 -3.6325e-017
Spine  3.48321 -0.120132 -7.31033
Spine1  9.35948 -0.777916 -1.01616
HEad  -18.6042 4.83403 -3.93185
LeftShoulder1  -0.565386 4.98896 -31.9293
LeftArm  10.7972 -11.669 -43.0375
LeftForeArm  25.7949 -15.5318 -7.907
LeftHand  -0.0622993 9.91857 -0.197353
RightShoulder  -0.872177 -5.96385 28.8522
RightArm  20.6984 -9.06953 46.4156
RightForeArm  17.4676 14.2649 6.46659
RightHand  0.0479147 2.57683 0.485605
LeftUpLeg  -3.12028 5.99017 -5.80341
LeftLeg  18.6036 7.96888 2.16049
LeftFoot  -10.9612 0.0460415 5.93167
LeftToes  3.13772e-010 -3.14513e-011 3.96022e-013
235
root  -16.0419 39.2769 1.80099 -155.047 -84.363 149.677
RightUpLeg  -18.1264 5.39201 -6.98806
RightLeg  49.078 3.34995 3.80401
RightFoot  -2.76611 -0.747297 9.69193
RightToes  -1.16417e-010 0 -3.6325e-017
Spine  4.29083 -0.367145 -7.79508
Spine1  8.97497 -1.27218 0.128058
HEad  -19.0381 5.00823 -4.06978
LeftShoulder1  -0.599937 5.09387 -31.573
LeftArm  10.1343 -14.6911 -43.5409
LeftForeArm  24.0838 -16.2338 -7.34117
LeftHand  -0.0503426 9.40224 0.0145928
RightShoulder  -0.800243 -5.78074 28.5213
RightArm  19.5482 -8.91727 46.6554
RightForeArm  17.7973 13.9545 6.41655
RightHand  0.0657381 3.22372 0.649905
LeftUpLeg  -0.934612 6.23506 -5.44967
LeftLeg  17.6433 8.27049 1.9589
LeftFoot  -11.7512 0.0927306 6.03227
LeftToes  3.13772e-010 -3.14513e-011 3.96022e-013
236
root  -16.7822 39.3001 1.92266 -157.773 -84.5525 152.275
RightUpLeg  -19.3591 4.88706 -6.51236
RightLeg  41.0363 4.19842 3.61599
RightFoot  -2.76051 -0.75382 9.77305
RightToes  -1.16417e-010 0 -3.6325e-017
Spine  4.78709 -0.573952 -7.54825
Spine1  8.828 -1.47703 0.567064
HEad  -18.8797 4.76461 -3.24135
LeftShoulder1  -0.52136 4.90071 -31.1794
LeftArm  10.3496 -17.4482 -44.1948
LeftForeArm  22.3396 -17.2015 -6.70847
LeftHand  -0.0237461 9.26533 0.827484
RightShoulder  -0.877095 -5.97849 28.8548
RightArm  18.3318 -8.47435 46.5279
RightForeArm  17.9549 13.5131 6.37373
RightHand  0.0649457 2.6156 0.734808
LeftUpLeg  0.90826 6.39782 -5.23772
LeftLeg  16.7926 8.28531 1.7709
LeftFoot  -12.5395 0.141948 6.39691
LeftToes  3.13772e-010 -3.14513e-011 3.96022e-013
237
root  -17.5617 39.2945 2.02601 -159.083 -84.686 153.726
RightUpLeg  -20.0324 4.27287 -6.12577
RightLeg  31.4947 5.77216 3.57926
RightFoot  -2.74271 -0.816479 10.5826
RightToes  -1.16417e-010 0 -3.6325e-017
Spine  5.05458 -0.793379 -7.70531
Spine1  8.58265 -1.81502 1.50072
HEad  -19.0554 4.44025 -3.25731
LeftShoulder1  -0.479672 4.80181 -30.8111
LeftArm  10.931 -19.3213 -44.8391
LeftForeArm  19.617 -18.3935 -6.02086
LeftHand  0.00965326 8.29043 2.02714
RightShoulder  -0.829685 -5.8624 28.5684
RightArm  16.7386 -8.09337 47.0332
RightForeArm  19.1434 12.6372 6.41024
RightHand  0.0750293 2.88039 0.837589
LeftUpLeg  2.45619 6.48328 -5.13211
LeftLeg  16.0605 8.17556 1.5491
LeftFoot  -13.4603 0.198257 6.31254
LeftToes  3.13772e-010 -3.14513e-011 3.96022e-013
238
root  -18.3562 39.2609 2.11406 -157.209 -84.8463 152.056
RightUpLeg  -20.3162 3.51317 -5.8798
RightLeg  21.6113 7.27547 2.99109
RightFoot  -2.86343 -0.811548 10.6566
RightToes  -1.16417e-010 0 -3.6325e-017
Spine  5.37014 -0.883527 -7.71076
Spine1  8.33507 -1.95989 2.22756
HEad  -19.6553 4.1395 -3.23752
LeftShoulder1  -0.412034 4.63 -30.4327
LeftArm  13.0208 -20.3479 -45.5299
LeftForeArm  17.3377 -20.5919 -4.90394
LeftHand  0.00931507 8.36088 1.99874
RightShoulder  -0.805995 -5.80578 28.3951
RightArm  15.9908 -7.98314 47.3378
RightForeArm  19.3552 12.3767 6.34714
RightHand  0.0407567 2.82685 0.362164
LeftUpLeg  4.00092 6.60165 -5.18851
LeftLeg  15.2182 7.82975 1.1222
LeftFoot  -14.3288 0.253711 6.4386
LeftToes  3.13772e-010 -3.14513e-011 3.96022e-013
239
root  -19.2328 39.199 2.19832 -154.083 -85.0614 149.321
RightUpLeg  -20.3027 1.09708 -5.04616
RightLeg  11.9074 9.76205 1.75807
RightFoot  -3.15366 -0.801887 10.8698
RightToes  -1.16417e-010 0 -3.6325e-017
Spine  5.08348 -1.05158 -6.89543
Spine1  8.46282 -1.8841 1.81256
HEad  -19.8931 3.87205 -3.19813
LeftShoulder1  -0.38173 4.56786 -29.7283
LeftArm  14.2193 -21.0515 -46.5307
LeftForeArm  16.6493 -22.227 -4.32167
LeftHand  -0.00821374 7.72499 1.59296
RightShoulder  -0.828969 -5.85283 28.6828
RightArm  16.0674 -8.05872 47.4774
RightForeArm  19.5357 12.6505 6.2611
RightHand  0.0536906 2.39054 0.612323
LeftUpLeg  5.40392 6.41203 -5.50507
LeftLeg  14.493 7.69335 1.04433
LeftFoot  -15.3609 0.308647 6.14568
LeftToes  3.13772e-010 -3.14513e-011 3.96022e-013
240
root  -20.145 39.1294 2.27183 -149.058 -85.0739 144.45
RightUpLeg  -20.06 -4.14859 -3.24559
RightLeg  3.51463 14.1225 0.153773
RightFoot  -3.26586 -0.825843 11.3523
RightToes  -1.16417e-010 0 -3.6325e-017
Spine  5.00149 -0.947869 -6.37246
Spine1  8.74199 -1.73858 1.95766
HEad  -20.0992 3.21788 -3.36415
LeftShoulder1  -0.393215 4.59551 -29.8646
LeftArm  15.9599 -21.5012 -46.9074
LeftForeArm  15.6421 -23.8288 -4.25485
LeftHand  -0.01523 8.16299 1.13784
RightShoulder  -0.834223 -5.86229 28.7527
RightArm  16.5124 -8.00912 47.5535
RightForeArm  19.0864 12.7871 6.33032
RightHand  0.0388594 2.87276 0.327901
LeftUpLeg  7.42575 6.27149 -5.92572
LeftLeg  13.1455 7.60679 0.734649
LeftFoot  -16.1654 0.35582 6.13461
LeftToes  3.13772e-010 -3.14513e-011 3.96022e-013
241
root  -21.1267 38.9978 2.29842 -140.455 -85.6171 136.01
RightUpLeg  -19.7655 -5.34153 -3.14734
RightLeg  -2.25475 12.6339 -0.300726
RightFoot  -3.98278 -0.807919 12.087
RightToes  -1.16417e-010 0 -3.6325e-017
Spine  4.9666 -0.983922 -5.7565
Spine1  8.86386 -1.73014 1.96916
HEad  -20.2625 2.28459 -3.24245
LeftShoulder1  -0.349192 4.47654 -29.7521
LeftArm  16.7624 -21.171 -47.7185
LeftForeArm  16.4409 -25.0743 -4.49978
LeftHand  -0.0252902 7.90886 0.765976
RightShoulder  -0.896643 -6.00654 29.2376
RightArm  17.1481 -7.75992 47.189
RightForeArm  19.0766 12.7502 6.44856
RightHand  0.0738482 2.89664 0.816996
LeftUpLeg  9.2092 6.28198 -6.04609
LeftLeg  12.6076 6.65364 0.564081
LeftFoot  -17.3959 0.411991 5.81114
LeftToes  3.13772e-010 -3.14513e-011 3.96022e-013
242
root  -22.2118 38.7625 2.28789 -132.373 -85.7168 127.862
RightUpLeg  -20.1872 -5.44376 -3.25638
RightLeg  -2.04951 9.7304 0.0248874
RightFoot  -4.5779 -0.714864 11.6201
RightToes  -1.16417e-010 0 -3.6325e-017
Spine  4.79982 -0.825955 -5.44602
Spine1  9.21155 -1.58608 2.09239
HEad  -20.4851 2.23631 -3.60796
LeftShoulder1  -0.360724 4.49858 -30.114
LeftArm  18.4899 -20.3167 -48.24
LeftForeArm  16.218 -26.1666 -4.75337
LeftHand  -0.00399616 7.92157 1.66563
RightShoulder  -0.83397 -5.85986 28.7904
RightArm  17.3269 -7.3742 47.6738
RightForeArm  19.1276 12.2129 6.75431
RightHand  0.0563151 3.15189 0.533229
LeftUpLeg  11.0881 6.59118 -6.12341
LeftLeg  12.8308 5.71209 0.42708
LeftFoot  -19.1373 0.475806 5.29292
LeftToes  3.13772e-010 -3.14513e-011 3.96022e-013
243
root  -23.3827 38.5069 2.23548 -126.77 -85.936 122.318
RightUpLeg  -21.0135 -5.44639 -2.98359
RightLeg  2.10704 5.54523 0.824297
RightFoot  -2.75497 -0.751993 9.56375
RightToes  -1.16417e-010 0 -3.6325e-017
Spine  4.48802 -0.709518 -4.6813
Spine1  9.45812 -1.44675 2.03891
HEad  -20.459 1.46265 -3.61529
LeftShoulder1  -0.393874 4.57444 -30.647
LeftArm  20.3899 -18.6478 -48.2751
LeftForeArm  16.3516 -26.9832 -4.92807
LeftHand  -0.0168289 7.30888 1.33643
RightShoulder  -0.857563 -5.91236 29.007
RightArm  17.4065 -6.23022 47.633
RightForeArm  20.8634 11.0879 7.18329
RightHand  0.0698991 2.40448 0.846455
LeftUpLeg  12.8851 6.94613 -5.77052
LeftLeg  13.3258 4.52924 0.414253
LeftFoot  -20.9594 0.507691 4.54502
LeftToes  3.13772e-010 -3.14513e-011 3.96022e-013
244
root  -24.6362 38.3331 2.14393 -106.109 -86.8923 101.85
RightUpLeg  -21.3646 -5.76786 -2.37086
RightLeg  6.42264 2.47991 1.03719
RightFoot  -0.840867 -0.56939 6.75112
RightToes  -1.16417e-010 0 -3.6325e-017
Spine  4.00131 -0.950136 -4.05656
Spine1  9.61466 -1.97191 3.06515
HEad  -20.1307 0.8159 -3.41425
LeftShoulder1  -0.415505 4.61616 -31.2296
LeftArm  22.8653 -16.1142 -48.419
LeftForeArm  15.8025 -26.9226 -4.9443
LeftHand  -0.0190467 7.95532 1.03628
RightShoulder  -0.860118 -5.92334 28.926
RightArm  16.2892 -5.85769 47.722
RightForeArm  23.0179 10.3105 7.17121
RightHand  0.0810073 2.51732 0.989924
LeftUpLeg  14.5744 6.99922 -4.7401
LeftLeg  13.8901 2.61237 0.53625
LeftFoot  -22.1408 0.450661 3.33379
LeftToes  3.13772e-010 -3.14513e-011 3.96022e-013
245
root  -25.8822 38.3662 2.05288 -57.3553 -87.8008 53.1253
RightUpLeg  -21.8233 -6.27152 -1.0947
RightLeg  9.97822 1.79184 1.25881
RightFoot  5.04137 0.0428243 -0.263839
RightToes  -1.16417e-010 0 -3.6325e-017
Spine  3.78831 -1.23868 -1.90719
Spine1  9.96417 -2.46729 3.73876
HEad  -19.8377 -0.506532 -3.16262
LeftShoulder1  -0.465994 4.74317 -31.4118
LeftArm  26.104 -13.1208 -48.9089
LeftForeArm  14.8214 -25.9204 -4.75143
LeftHand  -0.00789296 7.94558 1.56369
RightShoulder  -0.989391 -6.2191 29.8889
RightArm  15.9592 -5.10835 46.8029
RightForeArm  22.9913 9.39515 7.34659
RightHand  0.0754763 2.81854 0.843835
LeftUpLeg  16.5685 6.07387 -2.88817
LeftLeg  13.7852 0.667086 0.552219
LeftFoot  -21.8581 0.239581 1.20504
LeftToes  3.13772e-010 -3.14513e-011 3.96022e-013
246
root  -27.2612 38.2792 1.93756 -29.847 -88.7359 25.671
RightUpLeg  -22.3258 -4.66426 0.750186
RightLeg  14.3913 0.667731 0.387795
RightFoot  7.36597 0.234282 -1.14669
RightToes  -1.16417e-010 0 -3.6325e-017
Spine  3.49097 -1.02501 1.43293
Spine1  9.69387 -2.01198 3.29829
HEad  -19.582 -1.62576 -3.54708
LeftShoulder1  -0.568857 4.95592 -33.0393
LeftArm  28.0254 -9.82132 -48.4798
LeftForeArm  15.1885 -23.7049 -4.39477
LeftHand  -0.0472211 8.22925 -0.112517
RightShoulder  -0.982809 -6.20604 29.8097
RightArm  15.3256 -4.43131 46.5313
RightForeArm  23.445 8.2579 7.42367
RightHand  0.0886326 1.94694 1.28228
LeftUpLeg  17.3786 5.39354 -0.375165
LeftLeg  16.6364 -0.464688 0.308616
LeftFoot  -22.1071 -0.0581457 -2.01544
LeftToes  3.13772e-010 -3.14513e-011 3.96022e-013
